<svg width="178" height="108" viewBox="0 0 178 108" fill="none" xmlns="http://www.w3.org/2000/svg">
<path d="M9.6 86.576C7.808 86.576 6.44267 86.1067 5.504 85.168C4.56533 84.2293 4.096 82.8427 4.096 81.008V46.128C4.096 44.2507 4.56533 42.8213 5.504 41.84C6.44267 40.816 7.68 40.304 9.216 40.304C10.5813 40.304 11.648 40.56 12.416 41.072C13.184 41.584 14.0373 42.4373 14.976 43.632L35.264 68.976H33.472V45.808C33.472 44.016 33.92 42.6507 34.816 41.712C35.7547 40.7733 37.12 40.304 38.912 40.304C40.704 40.304 42.048 40.7733 42.944 41.712C43.8827 42.6507 44.352 44.016 44.352 45.808V81.264C44.352 82.8853 43.9253 84.1867 43.072 85.168C42.2187 86.1067 41.0667 86.576 39.616 86.576C38.1653 86.576 37.0133 86.32 36.16 85.808C35.3493 85.2533 34.4747 84.4 33.536 83.248L13.248 57.84H15.04V81.008C15.04 82.8427 14.5707 84.2293 13.632 85.168C12.736 86.1067 11.392 86.576 9.6 86.576ZM74.356 86.704C69.7907 86.704 65.78 85.744 62.324 83.824C58.868 81.8613 56.18 79.1307 54.26 75.632C52.3827 72.1333 51.444 68.0587 51.444 63.408C51.444 59.9093 51.9773 56.7307 53.044 53.872C54.1533 51.0133 55.7107 48.56 57.716 46.512C59.764 44.464 62.196 42.9067 65.012 41.84C67.828 40.7307 70.9427 40.176 74.356 40.176C78.9213 40.176 82.9107 41.136 86.324 43.056C89.78 44.976 92.468 47.6853 94.388 51.184C96.308 54.64 97.268 58.7147 97.268 63.408C97.268 66.9067 96.7133 70.0853 95.604 72.944C94.5373 75.8027 92.98 78.2773 90.932 80.368C88.9267 82.416 86.516 83.9947 83.7 85.104C80.884 86.1707 77.7693 86.704 74.356 86.704ZM74.356 76.848C76.6173 76.848 78.5373 76.3147 80.116 75.248C81.6947 74.1813 82.9107 72.6453 83.764 70.64C84.6173 68.6347 85.044 66.224 85.044 63.408C85.044 59.184 84.1053 55.8987 82.228 53.552C80.3507 51.2053 77.7267 50.032 74.356 50.032C72.1373 50.032 70.2173 50.5653 68.596 51.632C67.0173 52.656 65.8013 54.1707 64.948 56.176C64.0947 58.1387 63.668 60.5493 63.668 63.408C63.668 67.632 64.6067 70.9387 66.484 73.328C68.3613 75.6747 70.9853 76.848 74.356 76.848ZM118.108 86.576C116.231 86.576 114.78 86.064 113.756 85.04C112.732 83.9733 112.22 82.5013 112.22 80.624V50.48H102.172C100.593 50.48 99.3773 50.0747 98.524 49.264C97.7133 48.4107 97.308 47.216 97.308 45.68C97.308 44.1013 97.7133 42.9067 98.524 42.096C99.3773 41.2853 100.593 40.88 102.172 40.88H134.044C135.623 40.88 136.817 41.2853 137.628 42.096C138.481 42.9067 138.908 44.1013 138.908 45.68C138.908 47.216 138.481 48.4107 137.628 49.264C136.817 50.0747 135.623 50.48 134.044 50.48H123.996V80.624C123.996 82.5013 123.505 83.9733 122.524 85.04C121.543 86.064 120.071 86.576 118.108 86.576ZM148.928 86C146.922 86 145.386 85.488 144.32 84.464C143.296 83.3973 142.784 81.8827 142.784 79.92V46.96C142.784 44.9973 143.296 43.504 144.32 42.48C145.386 41.4133 146.922 40.88 148.928 40.88H170.624C172.16 40.88 173.312 41.264 174.08 42.032C174.848 42.8 175.232 43.9093 175.232 45.36C175.232 46.8533 174.848 48.0053 174.08 48.816C173.312 49.584 172.16 49.968 170.624 49.968H154.048V58.544H169.216C170.709 58.544 171.84 58.928 172.608 59.696C173.418 60.464 173.824 61.5947 173.824 63.088C173.824 64.5813 173.418 65.712 172.608 66.48C171.84 67.248 170.709 67.632 169.216 67.632H154.048V76.912H170.624C172.16 76.912 173.312 77.3173 174.08 78.128C174.848 78.896 175.232 80.0053 175.232 81.456C175.232 82.9493 174.848 84.08 174.08 84.848C173.312 85.616 172.16 86 170.624 86H148.928Z" fill="#373737"/>
<path d="M91.4162 41.4055C89.5654 39.798 104.187 20.0153 104.187 20.0153C105.796 18.1704 108.602 17.9787 110.449 19.5833C112.3 21.1908 112.497 23.9883 110.89 25.8337C110.89 25.8337 93.2654 43.0105 91.4162 41.4055Z" fill="#373737"/>
<path d="M78.2508 35.0818C75.8083 34.6093 78.6023 9.76031 78.6023 9.76031C79.0772 7.31655 81.4454 5.72377 83.8871 6.20043C86.3308 6.67751 87.9219 9.04504 87.4437 11.4838C87.4437 11.4838 80.6945 35.5589 78.2508 35.0818Z" fill="#373737"/>
<path d="M63.7997 35.7415C61.4525 36.5402 51.4424 13.7876 51.4424 13.7876C50.6338 11.4514 51.8784 8.91208 54.2261 8.11136C56.5733 7.31268 59.1317 8.55689 59.9399 10.8952C59.9399 10.8952 66.1449 34.9424 63.7997 35.7415Z" fill="#373737"/>
</svg>
