<svg width="41" height="41" viewBox="0 0 41 41" fill="none" xmlns="http://www.w3.org/2000/svg">
<path d="M20.4999 31.1769C19.7923 31.1769 19.2187 31.7506 19.2187 32.4582C19.2187 33.1658 19.7923 33.7394 20.4999 33.7394H30.7499C32.401 33.7394 33.7395 32.4009 33.7395 30.7498V10.2498C33.7395 8.59874 32.401 7.26025 30.7499 7.26025H20.4999C19.7923 7.26025 19.2187 7.83389 19.2187 8.54151C19.2187 9.24912 19.7923 9.82276 20.4999 9.82276L30.7499 9.82276C30.9858 9.82275 31.177 10.014 31.177 10.2498L31.177 30.7498C31.177 30.9857 30.9858 31.1769 30.7499 31.1769H20.4999Z" fill="#1570EF"/>
<path fill-rule="evenodd" clip-rule="evenodd" d="M24.776 24.5404C25.9554 24.5404 26.9114 23.5844 26.9114 22.405V18.5775C26.9114 17.3981 25.9554 16.442 24.776 16.442L16.8962 16.442C16.885 16.3166 16.8733 16.1912 16.8612 16.0658L16.7689 15.1162C16.628 13.6673 15.0895 12.7997 13.7768 13.4288C10.985 14.7667 8.45762 16.5976 6.31623 18.8334L6.14677 19.0104C5.35375 19.8383 5.35375 21.1441 6.14677 21.9721L6.31623 22.149C8.45762 24.3848 10.985 26.2157 13.7768 27.5537C15.0895 28.1828 16.628 27.3151 16.7689 25.8662L16.8612 24.9166C16.8733 24.7912 16.885 24.6659 16.8962 24.5404H24.776ZM15.7082 21.9779C15.2532 21.9779 14.8509 22.2159 14.6234 22.5771C14.5126 22.7531 14.4433 22.9582 14.4295 23.1794C14.3985 23.6763 14.3589 24.1728 14.3107 24.6687L14.2839 24.9443C12.514 24.0322 10.8703 22.8963 9.39298 21.5657C9.00971 21.2205 8.63763 20.8621 8.27744 20.4912C10.026 18.6905 12.0548 17.1868 14.2839 16.0381L14.3107 16.3137C14.3589 16.8096 14.3985 17.3061 14.4295 17.803C14.4716 18.4784 15.0316 19.0045 15.7082 19.0045H24.3489V21.9779H15.7082Z" fill="#1570EF"/>
</svg>
