<svg width="149" height="58" viewBox="0 0 149 58" fill="none" xmlns="http://www.w3.org/2000/svg">
<g filter="url(#filter0_dd_230_1533)">
<path d="M13 46.3591C11.8954 46.3591 11 45.4636 11 44.3591V13.6409C11 12.5364 11.8954 11.641 13 11.641H19.367C20.1206 11.641 20.8103 12.0646 21.151 12.7368L28.4465 27.1306C29.0643 28.3056 29.6459 29.5697 30.1911 30.9228C30.7261 32.2157 31.2611 33.5257 31.7961 34.8528C31.8146 34.8987 31.8591 34.9288 31.9086 34.9288C31.9811 34.9288 32.0375 34.8657 32.0292 34.7937C31.8146 32.9397 31.5654 30.8483 31.2815 28.5193C30.9907 26.0979 30.8453 23.819 30.8453 21.6825V13.641C30.8453 12.5364 31.7408 11.641 32.8453 11.641H37.7866C38.8912 11.641 39.7866 12.5364 39.7866 13.641V44.3591C39.7866 45.4636 38.8912 46.3591 37.7866 46.3591H31.4196C30.666 46.3591 29.9764 45.9354 29.6357 45.2632L22.3402 30.8694C21.7586 29.6944 21.1771 28.4303 20.5955 27.0772C20.0607 25.7498 19.5259 24.4397 18.9911 23.1466C18.9723 23.101 18.9277 23.0712 18.8783 23.0712C18.8055 23.0712 18.7489 23.1344 18.757 23.2067C18.9717 25.1297 19.2211 27.2567 19.5051 29.5875C19.7959 31.9377 19.9413 34.181 19.9413 36.3175V44.359C19.9413 45.4636 19.0459 46.3591 17.9413 46.3591H13Z" fill="url(#paint0_linear_230_1533)"/>
<path d="M62.5692 47C59.298 47 56.4266 46.2878 53.9551 44.8635C51.4835 43.4036 49.5571 41.3205 48.1759 38.6142C46.7947 35.908 46.1042 32.6499 46.1042 28.8398C46.1042 25.0297 46.7947 21.8071 48.1759 19.1721C49.5571 16.5015 51.4835 14.4718 53.9551 13.0831C56.4266 11.6944 59.298 11 62.5692 11C65.8405 11 68.7118 11.6944 71.1834 13.0831C73.655 14.4718 75.5814 16.5015 76.9626 19.1721C78.3437 21.8071 79.0343 25.0297 79.0343 28.8398C79.0343 32.6499 78.3437 35.908 76.9626 38.6142C75.5814 41.3205 73.655 43.4036 71.1834 44.8635C68.7118 46.2878 65.8405 47 62.5692 47ZM62.5692 39.095C63.9868 39.095 65.2044 38.6855 66.2221 37.8665C67.2762 37.0119 68.0758 35.819 68.621 34.2878C69.1662 32.7567 69.4388 30.9407 69.4388 28.8398C69.4388 26.7389 69.1662 24.9585 68.621 23.4985C68.0758 22.003 67.2762 20.8635 66.2221 20.0801C65.2044 19.2967 63.9868 18.905 62.5692 18.905C61.1517 18.905 59.9159 19.2967 58.8619 20.0801C57.8442 20.8635 57.0627 22.003 56.5175 23.4985C55.9723 24.9585 55.6997 26.7389 55.6997 28.8398C55.6997 30.9407 55.9723 32.7567 56.5175 34.2878C57.0627 35.819 57.8442 37.0119 58.8619 37.8665C59.9159 38.6855 61.1517 39.095 62.5692 39.095Z" fill="url(#paint1_linear_230_1533)"/>
<path d="M92.5428 46.3591C91.4382 46.3591 90.5428 45.4636 90.5428 44.3591V21.3323C90.5428 20.2278 89.6473 19.3323 88.5428 19.3323H83.1653C82.0607 19.3323 81.1653 18.4369 81.1653 17.3323V13.641C81.1653 12.5364 82.0607 11.641 83.1653 11.641H107.298C108.402 11.641 109.298 12.5364 109.298 13.641V17.3323C109.298 18.4369 108.402 19.3323 107.298 19.3323H101.92C100.816 19.3323 99.9202 20.2278 99.9202 21.3323V44.3591C99.9202 45.4636 99.0248 46.3591 97.9202 46.3591H92.5428Z" fill="url(#paint2_linear_230_1533)"/>
<path d="M116.556 46.3591C115.452 46.3591 114.556 45.4636 114.556 44.3591V13.6409C114.556 12.5364 115.452 11.641 116.556 11.641H135.455C136.559 11.641 137.455 12.5364 137.455 13.641V17.3323C137.455 18.4369 136.559 19.3323 135.455 19.3323H125.934C124.829 19.3323 123.934 20.2278 123.934 21.3323V22.7804C123.934 23.885 124.829 24.7804 125.934 24.7804H133.492C134.597 24.7804 135.492 25.6758 135.492 26.7804V30.4718C135.492 31.5764 134.597 32.4718 133.492 32.4718H125.934C124.829 32.4718 123.934 33.3672 123.934 34.4718V36.6677C123.934 37.7722 124.829 38.6677 125.934 38.6677H136C137.105 38.6677 138 39.5631 138 40.6677V44.359C138 45.4636 137.105 46.3591 136 46.3591H116.556Z" fill="url(#paint3_linear_230_1533)"/>
<path fill-rule="evenodd" clip-rule="evenodd" d="M19.6669 31.0324C19.6192 30.5553 19.5653 30.0737 19.5051 29.5875C19.4243 28.924 19.3462 28.2769 19.271 27.6464C19.2696 27.6351 19.2683 27.6238 19.2669 27.6125C19.2195 27.2155 19.1733 26.8251 19.1282 26.4413C19.0844 26.0689 19.0417 25.7027 19 25.3427C18.9584 24.9833 18.9178 24.63 18.8783 24.2829C18.8381 23.9295 18.799 23.5825 18.7609 23.2419C18.7596 23.2301 18.7583 23.2184 18.757 23.2067C18.7489 23.1344 18.8055 23.0712 18.8783 23.0712C18.9277 23.0712 18.9723 23.101 18.9911 23.1466C18.9941 23.1538 18.997 23.1609 19 23.168C19.0015 23.1717 19.003 23.1754 19.0046 23.1791C19.5349 24.4616 20.0652 25.7609 20.5955 27.0772C20.9307 27.8571 21.2659 28.6074 21.6011 29.3282L21.6028 29.3319C21.7644 29.6793 21.926 30.0199 22.0876 30.3535C22.0926 30.3637 22.0975 30.3739 22.1024 30.3841C22.1131 30.406 22.1237 30.4279 22.1343 30.4497C22.2029 30.5909 22.2716 30.7308 22.3402 30.8694L29.6357 45.2632C29.9764 45.9354 30.666 46.3591 31.4196 46.3591H37.7866C38.8912 46.3591 39.7866 45.4636 39.7866 44.3591V13.641C39.7866 12.5364 38.8912 11.641 37.7866 11.641H32.8453C31.7408 11.641 30.8453 12.5364 30.8453 13.641V21.6825C30.8453 22.9954 30.9002 24.3621 31.01 25.7825C31.0112 25.7981 31.0125 25.8138 31.0137 25.8294C31.043 26.2053 31.0762 26.5849 31.1132 26.9683C31.1625 27.4786 31.2186 27.9956 31.2815 28.5193C31.3592 29.1568 31.4343 29.7765 31.5068 30.3784C31.5074 30.3829 31.5079 30.3875 31.5084 30.3921C31.5551 30.7797 31.6007 31.1599 31.6453 31.5327C31.6937 31.9378 31.7408 32.3342 31.7866 32.7219C31.8284 33.0746 31.869 33.4201 31.9086 33.7584C31.9486 34.0997 31.9875 34.4337 32.0253 34.7604C32.0266 34.7715 32.0279 34.7826 32.0292 34.7937C32.0375 34.8657 31.9811 34.9288 31.9086 34.9288C31.8591 34.9288 31.8146 34.8987 31.7961 34.8528C31.7929 34.845 31.7898 34.8372 31.7866 34.8294C31.7857 34.827 31.7847 34.8245 31.7837 34.8221C31.2528 33.5054 30.722 32.2057 30.1911 30.9228C29.8905 30.1769 29.5789 29.458 29.2563 28.7661L29.2547 28.7627C29.0863 28.4017 28.9149 28.0481 28.7405 27.7019C28.7303 27.6816 28.72 27.6613 28.7098 27.641C28.7047 27.6311 28.6997 27.6212 28.6947 27.6113C28.6126 27.4494 28.5299 27.2892 28.4465 27.1306L21.151 12.7368C20.8103 12.0646 20.1206 11.641 19.367 11.641H13C11.8954 11.641 11 12.5364 11 13.6409V44.3591C11 45.4636 11.8954 46.3591 13 46.3591H17.9413C19.0459 46.3591 19.9413 45.4636 19.9413 44.359V36.3175C19.9413 34.9778 19.8841 33.596 19.7698 32.1722C19.769 32.1624 19.7682 32.1526 19.7674 32.1427C19.7377 31.7754 19.7042 31.4053 19.6669 31.0324ZM24.6804 51.7473C22.9028 53.3696 20.5376 54.3591 17.9413 54.3591H13C7.47715 54.3591 3 49.8819 3 44.3591V13.6409C3 8.11808 7.47717 3.64095 13 3.64095H19.367C21.9032 3.64095 24.2944 4.60048 26.1063 6.25269C27.8839 4.63036 30.2491 3.64095 32.8453 3.64095H37.7866C41.4822 3.64095 44.7096 5.64563 46.4407 8.62687C47.5371 7.68189 48.7359 6.83925 50.0363 6.10863C53.8778 3.95018 58.1389 3 62.5692 3C66.9996 3 71.2607 3.95019 75.1022 6.10863M75.1022 6.10863C75.4122 6.28281 75.7164 6.46335 76.0149 6.65013C77.8304 4.79339 80.3633 3.64095 83.1653 3.64095H107.298C108.968 3.64095 110.543 4.05052 111.927 4.77471C113.311 4.05052 114.886 3.64095 116.556 3.64095H135.455C140.978 3.64095 145.455 8.11809 145.455 13.641V17.3323C145.455 19.8155 144.55 22.0872 143.051 23.8357C143.338 24.7667 143.492 25.7555 143.492 26.7804V30.4718C143.492 31.5417 143.324 32.5724 143.013 33.5389C144.857 35.3529 146 37.8768 146 40.6677V44.359C146 49.8819 141.523 54.3591 136 54.3591H116.556C112.317 54.3591 108.693 51.7206 107.238 47.996C105.783 51.7206 102.16 54.3591 97.9202 54.3591H92.5428C87.1867 54.3591 82.8142 50.1483 82.5549 44.8565C80.6649 47.6583 78.228 49.9937 75.2521 51.7516L75.2151 51.7734L75.1779 51.7949C71.3225 54.0167 67.0338 55 62.5692 55C58.1047 55 53.8159 54.0167 49.9606 51.7949L49.9233 51.7734L49.8863 51.7516C48.6613 51.0279 47.5275 50.2064 46.4857 49.2948C44.766 52.3192 41.5145 54.3591 37.7866 54.3591H31.4196C28.8835 54.3591 26.4922 53.3995 24.6804 51.7473M47.7866 37.7957C47.9097 38.0739 48.0394 38.3468 48.1759 38.6142C49.5571 41.3205 51.4835 43.4036 53.9551 44.8635C55.6238 45.8252 57.4748 46.4622 59.508 46.7746C60.4862 46.9249 61.5067 47 62.5692 47C63.6232 47 64.6357 46.9261 65.6067 46.7782C67.6493 46.4671 69.5082 45.8289 71.1834 44.8635C73.655 43.4036 75.5814 41.3205 76.9626 38.6142C78.3437 35.908 79.0343 32.6499 79.0343 28.8398C79.0343 27.9961 79.0005 27.1812 78.9327 26.3951C78.6946 23.6313 78.0379 21.2236 76.9626 19.1721C76.6257 18.5207 76.2564 17.9075 75.8546 17.3323C75.0791 16.2221 74.1826 15.2539 73.1653 14.4279C72.549 13.9275 71.8884 13.4792 71.1834 13.0831C69.5109 12.1434 67.6554 11.5216 65.6167 11.2177C64.6427 11.0726 63.6269 11 62.5692 11C61.5027 11 60.4786 11.0738 59.4971 11.2214C57.4681 11.5266 55.6208 12.1471 53.9551 13.0831C51.4835 14.4718 49.5571 16.5015 48.1759 19.1721C48.0394 19.4325 47.9097 19.6987 47.7866 19.9706C46.665 22.4499 46.1042 25.4062 46.1042 28.8398C46.1042 32.2733 46.665 35.2586 47.7866 37.7957ZM60.9733 38.903C61.4769 39.031 62.0089 39.095 62.5692 39.095C63.1264 39.095 63.6527 39.0317 64.1481 38.9052C64.9131 38.7098 65.6044 38.3636 66.2221 37.8665C67.2762 37.0119 68.0758 35.819 68.621 34.2878C69.1662 32.7567 69.4388 30.9407 69.4388 28.8398C69.4388 26.7389 69.1662 24.9585 68.621 23.4985C68.0758 22.003 67.2762 20.8635 66.2221 20.0801C65.6139 19.612 64.9343 19.2837 64.1833 19.0953C63.6776 18.9685 63.1396 18.905 62.5692 18.905C61.9955 18.905 61.4515 18.9692 60.9373 19.0975C60.1811 19.2863 59.4893 19.6138 58.8619 20.0801C57.8442 20.8635 57.0627 22.003 56.5175 23.4985C55.9723 24.9585 55.6997 26.7389 55.6997 28.8398C55.6997 30.9407 55.9723 32.7567 56.5175 34.2878C57.0627 35.819 57.8442 37.0119 58.8619 37.8665C59.4992 38.3617 60.203 38.7072 60.9733 38.903ZM81.1653 17.3323C81.1653 18.4369 82.0607 19.3323 83.1653 19.3323H88.5428C88.9354 19.3323 89.3016 19.4455 89.6106 19.641C90.1708 19.9954 90.5428 20.6204 90.5428 21.3323V44.3591C90.5428 45.4636 91.4382 46.3591 92.5428 46.3591H97.9202C99.0248 46.3591 99.9202 45.4636 99.9202 44.3591V21.3323C99.9202 20.6204 100.292 19.9954 100.852 19.641C101.161 19.4455 101.528 19.3323 101.92 19.3323H107.298C108.402 19.3323 109.298 18.4369 109.298 17.3323V13.641C109.298 12.5364 108.402 11.641 107.298 11.641H83.1653C82.6953 11.641 82.2631 11.8031 81.9217 12.0745C81.4608 12.4409 81.1653 13.0064 81.1653 13.641V17.3323ZM114.556 44.3591C114.556 45.4636 115.452 46.3591 116.556 46.3591H136C137.105 46.3591 138 45.4636 138 44.359V40.6677C138 40.2586 137.877 39.8783 137.667 39.5615C137.308 39.0227 136.696 38.6677 136 38.6677H125.934C125.541 38.6677 125.175 38.5545 124.866 38.359C124.306 38.0046 123.934 37.3796 123.934 36.6677V34.4718C123.934 33.7264 124.342 33.0763 124.946 32.7323C125.238 32.5665 125.575 32.4718 125.934 32.4718H133.492C134.531 32.4718 135.384 31.6803 135.483 30.6677C135.489 30.6032 135.492 30.5379 135.492 30.4718V26.7804C135.492 26.6482 135.479 26.5191 135.455 26.394C135.275 25.4744 134.464 24.7804 133.492 24.7804H125.934C125.575 24.7804 125.238 24.6857 124.946 24.52C124.342 24.176 123.934 23.5258 123.934 22.7804V21.3323C123.934 20.6204 124.306 19.9954 124.866 19.641C125.175 19.4455 125.541 19.3323 125.934 19.3323H135.455C136.472 19.3323 137.312 18.5725 137.438 17.5893C137.449 17.5051 137.455 17.4194 137.455 17.3323V13.641C137.455 12.5364 136.559 11.641 135.455 11.641H116.556C115.452 11.641 114.556 12.5364 114.556 13.6409V44.3591Z" fill="white"/>
</g>
<defs>
<filter id="filter0_dd_230_1533" x="0" y="0" width="149" height="58" filterUnits="userSpaceOnUse" color-interpolation-filters="sRGB">
<feFlood flood-opacity="0" result="BackgroundImageFix"/>
<feColorMatrix in="SourceAlpha" type="matrix" values="0 0 0 0 0 0 0 0 0 0 0 0 0 0 0 0 0 0 127 0" result="hardAlpha"/>
<feOffset dx="2" dy="2"/>
<feGaussianBlur stdDeviation="0.5"/>
<feComposite in2="hardAlpha" operator="out"/>
<feColorMatrix type="matrix" values="0 0 0 0 0.180392 0 0 0 0 0.447059 0 0 0 0 0.905882 0 0 0 0.3 0"/>
<feBlend mode="normal" in2="BackgroundImageFix" result="effect1_dropShadow_230_1533"/>
<feColorMatrix in="SourceAlpha" type="matrix" values="0 0 0 0 0 0 0 0 0 0 0 0 0 0 0 0 0 0 127 0" result="hardAlpha"/>
<feOffset dx="-2" dy="-2"/>
<feGaussianBlur stdDeviation="0.5"/>
<feComposite in2="hardAlpha" operator="out"/>
<feColorMatrix type="matrix" values="0 0 0 0 0.180392 0 0 0 0 0.447059 0 0 0 0 0.905882 0 0 0 0.3 0"/>
<feBlend mode="normal" in2="effect1_dropShadow_230_1533" result="effect2_dropShadow_230_1533"/>
<feBlend mode="normal" in="SourceGraphic" in2="effect2_dropShadow_230_1533" result="shape"/>
</filter>
<linearGradient id="paint0_linear_230_1533" x1="-50.4843" y1="-10.7222" x2="151.033" y2="30.2378" gradientUnits="userSpaceOnUse">
<stop stop-color="#1350B8"/>
<stop offset="1" stop-color="#84B1FE"/>
</linearGradient>
<linearGradient id="paint1_linear_230_1533" x1="-50.4843" y1="-10.7222" x2="151.033" y2="30.2378" gradientUnits="userSpaceOnUse">
<stop stop-color="#1350B8"/>
<stop offset="1" stop-color="#84B1FE"/>
</linearGradient>
<linearGradient id="paint2_linear_230_1533" x1="-50.4843" y1="-10.7222" x2="151.033" y2="30.2378" gradientUnits="userSpaceOnUse">
<stop stop-color="#1350B8"/>
<stop offset="1" stop-color="#84B1FE"/>
</linearGradient>
<linearGradient id="paint3_linear_230_1533" x1="-50.4843" y1="-10.7222" x2="151.033" y2="30.2378" gradientUnits="userSpaceOnUse">
<stop stop-color="#1350B8"/>
<stop offset="1" stop-color="#84B1FE"/>
</linearGradient>
</defs>
</svg>
